<?xml version="1.0" encoding="iso-8859-1"?>
<!-- Uploaded to: SVG Repo, www.svgrepo.com, Generator: SVG Repo Mixer Tools -->
<svg height="800px" width="800px" version="1.1" id="Layer_1" xmlns="http://www.w3.org/2000/svg" xmlns:xlink="http://www.w3.org/1999/xlink" 
	 viewBox="0 0 512 512" xml:space="preserve">
<path style="fill:#D4A8B4;" d="M356.659,161.156c-12.975,0-25.338,2.612-36.601,7.329v175.029
	c11.264,4.717,23.626,7.329,36.601,7.329c52.38,0,94.844-42.462,94.844-94.844S409.04,161.156,356.659,161.156z"/>
<g>
	<path style="fill:#3C1146;" d="M356.659,365.132c-14.576,0-28.747-2.839-42.119-8.439c-5.312-2.225-8.77-7.42-8.77-13.18V168.485
		c0-5.76,3.458-10.956,8.772-13.181c13.373-5.598,27.542-8.436,42.118-8.436c60.176,0,109.132,48.956,109.132,109.132
		S416.835,365.132,356.659,365.132z M334.348,333.426c7.214,2.079,14.686,3.129,22.311,3.129c44.418,0,80.555-36.137,80.555-80.555
		s-36.137-80.555-80.555-80.555c-7.626,0-15.097,1.05-22.311,3.129V333.426L334.348,333.426z"/>
	<path style="fill:#3C1146;" d="M461.458,512H251.862c-26.819,0-48.638-21.82-48.638-48.639v-61.67
		c0-7.89,6.398-14.288,14.288-14.288c7.89,0,14.288,6.398,14.288,14.288v61.67c0,11.062,9,20.062,20.061,20.062h209.595
		c11.062,0,20.062-9,20.062-20.062v-56.145c0-7.89,6.398-14.288,14.288-14.288s14.288,6.398,14.288,14.288v56.145
		C510.097,490.182,488.277,512,461.458,512z"/>
	<path style="fill:#3C1146;" d="M495.808,321.371c-7.89,0-14.288-6.398-14.288-14.288V48.639c0-11.062-9-20.062-20.062-20.062
		H265.676c-7.89,0-14.288-6.398-14.288-14.288S257.786,0,265.676,0h195.781c26.819,0,48.639,21.82,48.639,48.639v258.443
		C510.097,314.973,503.698,321.371,495.808,321.371z"/>
</g>
<path style="fill:#D4A8B4;" d="M251.862,497.712h64.336c0.276-2.791,0.414-5.621,0.414-8.48c0-48.632-39.572-88.204-88.204-88.204
	c-3.688,0-7.334,0.221-10.898,0.663v61.67C217.511,482.326,232.898,497.712,251.862,497.712z"/>
<path style="fill:#3C1146;" d="M316.199,512h-64.336c-26.819,0-48.638-21.82-48.638-48.639v-61.67c0-7.21,5.372-13.291,12.528-14.18
	c4.125-0.512,8.383-0.772,12.657-0.772c56.515,0,102.492,45.977,102.492,102.491c0,3.319-0.163,6.647-0.484,9.889
	C329.693,506.43,323.544,512,316.199,512z M231.8,415.393v47.968c0,11.062,9,20.062,20.061,20.062h50.237
	C299.212,446.486,269.055,417.083,231.8,415.393z"/>
<path style="fill:#D4A8B4;" d="M397.134,497.712h64.324c18.978,0,34.351-15.387,34.351-34.351v-61.67
	c-3.564-0.441-7.197-0.663-10.884-0.663c-48.646,0-88.204,39.572-88.204,88.204C396.72,492.091,396.858,494.922,397.134,497.712z"/>
<path style="fill:#3C1146;" d="M461.458,512h-64.324c-7.346,0-13.494-5.57-14.218-12.881c-0.322-3.242-0.484-6.57-0.484-9.889
	c0-56.515,45.977-102.491,102.491-102.491c4.265,0,8.52,0.26,12.645,0.772c7.157,0.887,12.53,6.969,12.53,14.18v61.67
	C510.097,490.182,488.277,512,461.458,512z M411.235,483.423h50.222c11.062,0,20.062-9,20.062-20.062v-47.968
	C444.269,417.088,414.12,446.489,411.235,483.423z"/>
<path style="fill:#D4A8B4;" d="M484.923,110.972c3.688,0,7.32-0.221,10.884-0.663v-61.67c0.001-18.965-15.371-34.351-34.349-34.351
	h-64.324c-0.276,2.791-0.414,5.621-0.414,8.48C396.72,71.401,436.277,110.972,484.923,110.972z"/>
<g>
	<path style="fill:#3C1146;" d="M484.923,125.261c-56.515,0-102.491-45.979-102.491-102.492c0-3.319,0.163-6.646,0.484-9.888
		C383.64,5.57,389.79,0,397.134,0h64.324c26.819,0,48.639,21.82,48.639,48.639v61.67c0,7.211-5.372,13.293-12.53,14.18
		C493.444,125.001,489.189,125.261,484.923,125.261z M411.235,28.577c2.886,36.936,33.033,66.335,70.285,68.03V48.639
		c0-11.062-9-20.062-20.062-20.062H411.235z"/>
	<path style="fill:#3C1146;" d="M322.788,252.654c0.47-14.098,7.754-25.613,15.273-25.613c3.995,0,9.869,3.525,9.869,7.99
		c0,4.934-6.933,8.929-8.459,17.623h19.034c4.112-10.809,9.165-23.497,24.203-23.497c14.92,0,22.089,11.044,23.85,23.497h3.291
		c1.643,0,3.172,1.879,3.172,4.465c0,2.233-1.527,4.465-3.172,4.465h-2.939c-0.234,7.284-2.113,21.031-10.22,21.031
		c-3.173,0-9.635-2.115-9.635-7.286c0-3.876,3.761-6.108,4.348-13.745h-17.155c-3.995,10.691-9.516,23.146-25.379,23.146
		c-14.568,0-23.38-9.4-25.613-23.146h-3.408c-1.645,0-3.173-2.233-3.173-4.465c0-2.586,1.527-4.465,3.173-4.465H322.788z
		 M355.335,260.409H339.59c0.94,3.994,3.173,7.167,7.403,7.167C350.871,267.577,353.337,264.639,355.335,260.409z M377.07,253.828
		h13.981c-1.057-5.287-3.759-7.52-6.578-7.52C381.065,246.31,378.95,249.363,377.07,253.828z"/>
	<path style="fill:#3C1146;" d="M226.896,415.316h-5.142c-3.789,0-7.423-1.506-10.103-4.185L171.05,370.53
		c-0.72-0.722-1.542-0.872-2.105-0.872s-1.385,0.15-2.105,0.872l-40.601,40.601c-2.681,2.679-6.314,4.185-10.103,4.185h-4.527
		c-3.789,0-7.423-1.506-10.103-4.185l-40.909-40.909c-1.162-1.162-3.048-1.162-4.208,0l-30.094,30.094
		c-4.085,4.085-10.232,5.305-15.572,3.098c-5.338-2.212-8.82-7.421-8.82-13.201V47.075C1.903,21.117,23.021,0,48.979,0H287.27
		c25.958,0,47.076,21.117,47.076,47.075v287.512c0,7.89-6.398,14.288-14.288,14.288s-14.288-6.398-14.288-14.288V47.075
		c0-10.201-8.3-18.498-18.499-18.498H48.979c-10.202,0-18.499,8.299-18.499,18.498v308.641l5.701-5.701
		c12.304-12.301,32.319-12.301,44.623,0l33.069,33.069l32.761-32.76c12.304-12.301,32.319-12.301,44.623,0l36.437,36.438
		c7.521,0.413,13.49,6.643,13.49,14.266C241.184,408.918,234.786,415.316,226.896,415.316z"/>
	<path style="fill:#3C1146;" d="M185.922,98.557H82.789c-7.89,0-14.288-6.398-14.288-14.288S74.898,69.98,82.789,69.98h103.134
		c7.89,0,14.288,6.398,14.288,14.288S193.814,98.557,185.922,98.557z"/>
	<path style="fill:#3C1146;" d="M185.922,191.328H82.789c-7.89,0-14.288-6.398-14.288-14.288c0-7.89,6.398-14.288,14.288-14.288
		h103.134c7.89,0,14.288,6.398,14.288,14.288C200.211,184.929,193.814,191.328,185.922,191.328z"/>
	<path style="fill:#3C1146;" d="M185.922,284.1H82.789c-7.89,0-14.288-6.398-14.288-14.288s6.398-14.288,14.288-14.288h103.134
		c7.89,0,14.288,6.398,14.288,14.288S193.814,284.1,185.922,284.1z"/>
</g>
</svg>