<?xml version="1.0" encoding="iso-8859-1"?>
<!-- Uploaded to: SVG Repo, www.svgrepo.com, Generator: SVG Repo Mixer Tools -->
<svg height="800px" width="800px" version="1.1" id="Layer_1" xmlns="http://www.w3.org/2000/svg" xmlns:xlink="http://www.w3.org/1999/xlink" 
	 viewBox="0 0 512 512" xml:space="preserve">
<path style="fill:#D4A8B4;" d="M268.353,235.671h-69.338c-9.471,0-17.15-7.678-17.15-17.15v-47.17
	c-20.561-2.728-36.301-20.725-35.422-42.227c0.862-21.081,17.994-38.237,39.073-39.129c15.144-0.641,28.55,6.968,36.128,18.696
	c7.28-11.269,19.941-18.734,34.354-18.734c14.413,0,27.074,7.465,34.354,18.734c7.577-11.728,20.984-19.337,36.128-18.696
	c21.079,0.892,38.212,18.048,39.073,39.129c0.879,21.503-14.86,39.499-35.422,42.227v47.17c0,9.471-7.678,17.15-17.15,17.15h-5.439
	H268.353z"/>
<g>
	<path style="fill:#3C1146;" d="M312.983,249.691H199.015c-17.186,0-31.168-13.983-31.168-31.169v-36.304
		c-21.782-8.14-36.404-29.387-35.411-53.664c1.157-28.278,24.211-51.366,52.487-52.564c13.641-0.561,26.527,3.815,36.722,12.012
		c9.602-7.722,21.639-12.062,34.354-12.062c12.715,0,24.752,4.34,34.354,12.062c10.195-8.198,23.091-12.592,36.721-12.012
		c28.277,1.197,51.331,24.285,52.488,52.564c0.993,24.277-13.629,45.526-35.411,53.664v36.304
		C344.152,235.709,330.169,249.691,312.983,249.691z M187.291,103.978c-0.391,0-0.786,0.008-1.18,0.025
		c-13.823,0.585-25.093,11.873-25.658,25.694c-0.572,13.99,9.427,25.923,23.258,27.758c6.969,0.924,12.176,6.867,12.176,13.897
		v47.169c0,1.726,1.403,3.13,3.129,3.13h113.968c1.726,0,3.129-1.405,3.129-3.13v-47.169c0-7.031,5.207-12.973,12.176-13.897
		c13.831-1.835,23.83-13.767,23.258-27.758c-0.565-13.822-11.835-25.11-25.658-25.694c-9.623-0.388-18.561,4.249-23.76,12.296
		c-2.582,3.998-7.017,6.411-11.775,6.411l0,0c-4.76,0-9.192-2.416-11.775-6.411c-4.985-7.716-13.425-12.321-22.578-12.321
		c-9.153,0-17.594,4.605-22.578,12.321c-2.582,3.997-7.015,6.411-11.775,6.411c-4.76,0-9.194-2.414-11.776-6.411
		C204.885,108.583,196.444,103.978,187.291,103.978z"/>
	<path style="fill:#3C1146;" d="M413.992,512h-17.83c-7.743,0-14.019-6.278-14.019-14.019c0-7.741,6.276-14.019,14.019-14.019h17.83
		c13.376,0,24.257-10.882,24.257-24.257V51.787c0-13.095-10.655-23.749-23.749-23.749H97.499c-13.095,0-23.749,10.655-23.749,23.749
		v407.917c0,13.376,10.882,24.257,24.257,24.257h19.982c3.432,0,6.223-2.791,6.223-6.223v-5.068
		c0-18.892,15.369-34.262,34.262-34.262h38.016c18.892,0,34.262,15.371,34.262,34.262v5.068c0,3.432,2.793,6.223,6.223,6.223h40.197
		c3.432,0,6.223-2.791,6.223-6.223v-5.068c0-18.892,15.371-34.262,34.263-34.262h21.285c7.743,0,14.019,6.278,14.019,14.019
		c0,7.741-6.276,14.019-14.019,14.019h-21.283c-3.432,0-6.225,2.791-6.225,6.223v5.068c0,18.892-15.369,34.262-34.262,34.262
		h-40.197c-18.892,0-34.262-15.371-34.262-34.262v-5.068c0-3.432-2.793-6.223-6.223-6.223h-38.016c-3.432,0-6.223,2.791-6.223,6.223
		v5.068c0,18.892-15.369,34.262-34.262,34.262H98.008c-28.836,0-52.296-23.46-52.296-52.296V51.787C45.711,23.231,68.944,0,97.499,0
		h317.001c28.556,0,51.787,23.231,51.787,51.787v407.917C466.287,488.54,442.828,512,413.992,512z"/>
	<path style="fill:#3C1146;" d="M262.078,320.607H127.491c-7.743,0-14.019-6.278-14.019-14.019c0-7.741,6.276-14.019,14.019-14.019
		h134.587c7.743,0,14.019,6.278,14.019,14.019C276.097,314.329,269.821,320.607,262.078,320.607z"/>
	<path style="fill:#3C1146;" d="M262.078,394.15H127.491c-7.743,0-14.019-6.278-14.019-14.019s6.276-14.019,14.019-14.019h134.587
		c7.743,0,14.019,6.278,14.019,14.019S269.821,394.15,262.078,394.15z"/>
	<path style="fill:#3C1146;" d="M384.508,320.607h-50.464c-7.743,0-14.019-6.278-14.019-14.019c0-7.741,6.276-14.019,14.019-14.019
		h50.464c7.743,0,14.019,6.278,14.019,14.019C398.527,314.329,392.251,320.607,384.508,320.607z"/>
	<path style="fill:#3C1146;" d="M384.508,394.15h-50.464c-7.743,0-14.019-6.278-14.019-14.019s6.276-14.019,14.019-14.019h50.464
		c7.743,0,14.019,6.278,14.019,14.019S392.251,394.15,384.508,394.15z"/>
</g>
</svg>